<svg width="104" height="104" viewBox="0 0 104 104" fill="none" xmlns="http://www.w3.org/2000/svg">
<path d="M27.0747 86.3893C27.2307 89.6307 31.0787 92.0053 36.5387 93.496C36.5907 93.5133 36.6427 93.5307 36.6947 93.548C38.9307 94.1547 41.4267 94.588 44.0613 94.8827C44.096 94.8827 44.1133 94.9 44.148 94.9C44.1653 94.9 44.1827 94.9 44.1827 94.9C46.7133 95.1773 49.348 95.3333 51.9827 95.3333C52 95.3333 52 95.3333 52.0173 95.3333C52.0347 95.3333 52.0347 95.3333 52.052 95.3333C54.6867 95.3333 57.3213 95.1773 59.852 94.9C59.8693 94.9 59.8693 94.9 59.8867 94.9C59.904 94.9 59.9387 94.8827 59.956 94.8827C62.5907 94.588 65.104 94.1373 67.34 93.5307C67.3747 93.5133 67.4267 93.5133 67.4613 93.496C72.9387 92.0053 76.7867 89.6307 76.9427 86.3893L81.9173 62.5733C82.108 61.6373 81.5187 60.7187 80.5827 60.528C79.6293 60.3373 78.728 60.9267 78.5373 61.8627L73.528 85.8173C73.5107 85.9387 73.4933 86.06 73.4933 86.164C73.4933 87.0307 71.9333 88.2787 68.9693 89.3707L75.868 44.1307C78.572 43.316 80.964 42.328 82.8707 41.2013L79.7853 55.9173C79.5947 56.8533 80.184 57.772 81.12 57.9627C81.2413 57.98 81.3627 57.9973 81.484 57.9973C82.2813 57.9973 83.0093 57.4427 83.1827 56.628L87.3947 36.4693C87.62 35.8627 87.7413 35.2387 87.7413 34.58C87.7413 31.512 85.7653 28.86 82.9747 27.8893C82.9747 27.8547 82.9747 27.82 82.9747 27.7853C82.9747 23.8507 79.716 20.696 75.816 20.7133C75.036 17.6453 72.2627 15.3747 68.952 15.3747C68.6573 15.3747 68.38 15.392 68.1027 15.4267C67.0627 12.7747 64.5147 10.9547 61.5507 10.9547C60.268 10.9547 59.0373 11.3013 57.98 11.9253C56.6973 9.94933 54.496 8.66667 52 8.66667C49.504 8.66667 47.3027 9.94933 46.0373 11.9427C44.9627 11.3013 43.7493 10.972 42.4667 10.972C39.4853 10.972 36.9373 12.792 35.9147 15.444C35.6373 15.4093 35.3427 15.392 35.0653 15.392C31.7547 15.392 28.9813 17.6627 28.2013 20.7307C28.1667 20.7307 28.1493 20.7307 28.1147 20.7307C24.2147 20.7307 21.0427 23.9027 21.0427 27.8027C21.0427 27.8373 21.0427 27.872 21.0427 27.9067C18.2693 28.8773 16.276 31.5293 16.276 34.5973C16.276 35.2387 16.3973 35.8627 16.6227 36.4693L27.0747 86.3893ZM30.5413 86.1813C30.5413 86.06 30.524 85.9387 30.5067 85.8173L21.164 41.2013C23.0707 42.328 25.4627 43.316 28.1667 44.1307L35.0653 89.3707C32.1013 88.296 30.5413 87.048 30.5413 86.1813ZM61.8107 46.748L58.24 91.572C56.8187 91.6933 55.328 91.78 53.716 91.832V47.216C56.4373 47.164 59.1587 47.008 61.8107 46.748ZM50.2667 91.832C48.672 91.7973 47.164 91.7107 45.7427 91.572L42.172 46.748C44.824 47.008 47.5453 47.164 50.2667 47.1987V91.832ZM38.6707 46.3493L42.2413 91.156C40.976 90.9653 39.7973 90.74 38.7227 90.48L31.8067 45.1187C33.9733 45.604 36.2787 46.02 38.6707 46.3493ZM65.2773 90.48C64.2027 90.74 63.0413 90.9653 61.7587 91.156L65.3293 46.3493C67.7213 46.02 70.0267 45.6213 72.1933 45.1187L65.2773 90.48ZM23.1227 30.992C23.6427 30.9573 24.128 30.68 24.4227 30.264C24.7173 29.848 24.8213 29.2933 24.6653 28.7907C24.5613 28.4093 24.5093 28.08 24.5093 27.8027C24.5093 25.8093 26.1213 24.1973 28.1147 24.1973C28.444 24.1973 28.7907 24.2667 29.2067 24.388C29.744 24.5613 30.3507 24.4573 30.8013 24.1107C31.252 23.764 31.512 23.2093 31.4773 22.6373C31.4773 22.5507 31.46 22.4467 31.4427 22.4467C31.4427 20.4533 33.0547 18.8413 35.048 18.8413C35.5333 18.8413 36.0187 18.9453 36.4693 19.136C36.972 19.3613 37.5613 19.3267 38.0467 19.032C38.532 18.7373 38.844 18.252 38.896 17.6973C39.0693 15.8253 40.5947 14.4213 42.4667 14.4213C43.6107 14.4213 44.668 14.9587 45.3613 15.8947C45.7773 16.4493 46.488 16.7093 47.164 16.5533C47.84 16.3973 48.36 15.8427 48.464 15.1493C48.7413 13.3987 50.232 12.1333 52 12.1333C53.768 12.1333 55.2587 13.3987 55.536 15.1667C55.6573 15.86 56.16 16.4147 56.836 16.5707C57.512 16.7267 58.2227 16.484 58.6387 15.912C59.332 14.976 60.3893 14.4387 61.5333 14.4387C63.388 14.4387 64.9307 15.8427 65.104 17.7147C65.156 18.2693 65.468 18.772 65.9533 19.0493C66.4387 19.3267 67.0107 19.3613 67.5307 19.1533C67.9813 18.9627 68.4667 18.8587 68.952 18.8587C70.9453 18.8587 72.5573 20.4707 72.5573 22.3773C72.5573 22.4293 72.5227 22.6027 72.5227 22.6547C72.488 23.2267 72.748 23.7813 73.1987 24.128C73.6493 24.4747 74.2387 24.5787 74.7933 24.4053C75.2093 24.2667 75.556 24.2147 75.8853 24.2147C77.8787 24.2147 79.4907 25.8267 79.4907 27.82C79.4907 28.1147 79.4387 28.4267 79.3347 28.808C79.196 29.3107 79.2827 29.848 79.5773 30.2813C79.872 30.7147 80.3573 30.9747 80.8773 31.0093C82.7667 31.1307 84.24 32.7253 84.24 34.6147C84.24 38.4453 71.968 43.7667 51.9827 43.7667C31.9973 43.7667 19.7253 38.428 19.7253 34.6147C19.7427 32.708 21.216 31.1133 23.1227 30.992Z" fill="white"/>
<path d="M29.1027 35.4987C29.3107 35.568 29.5013 35.6027 29.7093 35.6027C30.4027 35.6027 31.0613 35.1693 31.3387 34.4933C31.46 34.1987 32.5693 31.564 35.152 31.9973C36.088 32.1533 36.9893 31.512 37.1453 30.5587C37.3013 29.6053 36.66 28.7213 35.7067 28.5653C31.3213 27.8547 28.808 31.3387 28.0973 33.28C27.7507 34.1813 28.2187 35.1693 29.1027 35.4987Z" fill="white"/>
<path d="M47.3027 37.0933C47.84 37.8907 48.9147 38.0987 49.6947 37.5787C49.972 37.4053 52.3813 35.9147 54.2533 37.7693C54.5827 38.0987 55.0333 38.272 55.484 38.272C55.9347 38.272 56.368 38.0987 56.7147 37.7693C57.3907 37.0933 57.3907 36.0013 56.7147 35.3253C53.5773 32.188 49.504 33.5573 47.788 34.7013C46.9733 35.2213 46.7653 36.296 47.3027 37.0933Z" fill="white"/>
<path d="M41.496 28.028C41.6867 28.0973 41.8947 28.132 42.1027 28.132C42.8133 28.132 43.472 27.6987 43.732 27.0053C43.7667 26.884 44.8413 24.076 47.5453 24.5093C48.4987 24.6653 49.3827 24.024 49.5387 23.0707C49.6947 22.1173 49.0533 21.2333 48.1 21.0773C43.7147 20.3667 41.2013 23.8507 40.4907 25.792C40.1267 26.7107 40.5947 27.6987 41.496 28.028Z" fill="white"/>
<path d="M68.848 31.9973C71.4653 31.5813 72.54 34.1813 72.6613 34.4933C72.9213 35.1867 73.58 35.62 74.2907 35.62C74.4987 35.62 74.6893 35.5853 74.8973 35.516C75.7987 35.1867 76.2493 34.1813 75.92 33.2973C75.2093 31.356 72.696 27.872 68.3107 28.5827C67.3747 28.7387 66.716 29.6227 66.872 30.576C67.0107 31.512 67.912 32.1533 68.848 31.9973Z" fill="white"/>
<path d="M56.472 26.2427C59.072 25.8093 60.164 28.4267 60.2853 28.7387C60.5453 29.432 61.204 29.8653 61.9147 29.8653C62.1227 29.8653 62.3133 29.8307 62.5213 29.7613C63.4227 29.432 63.8733 28.4267 63.544 27.5427C62.8333 25.6013 60.32 22.1173 55.9347 22.828C54.9987 22.984 54.34 23.868 54.496 24.8213C54.6347 25.7573 55.536 26.3987 56.472 26.2427Z" fill="white"/>
</svg>
