<svg width="13" height="13" viewBox="0 0 13 13" fill="none" xmlns="http://www.w3.org/2000/svg">
<path d="M8.11747 4.59027L6.74584 1.61656C6.64904 1.4067 6.35077 1.4067 6.25397 1.61656L4.88234 4.59027C4.84289 4.6758 4.76183 4.73469 4.66829 4.74578L1.41628 5.13136C1.18677 5.15857 1.09461 5.44223 1.26428 5.59915L3.66858 7.82258C3.73774 7.88653 3.7687 7.98181 3.75034 8.0742L3.11212 11.2862C3.06708 11.5129 3.30838 11.6882 3.51005 11.5753L6.36762 9.97576C6.44981 9.92976 6.55 9.92976 6.63219 9.97576L9.48977 11.5753C9.69143 11.6882 9.93274 11.5129 9.88769 11.2862L9.24947 8.0742C9.23112 7.98181 9.26208 7.88653 9.33123 7.82258L11.7355 5.59915C11.9052 5.44223 11.813 5.15857 11.5835 5.13136L8.33152 4.74578C8.23798 4.73469 8.15693 4.6758 8.11747 4.59027Z" fill="#F1DE30"/>
</svg>
